<?xml version="1.0" encoding="utf-8"?>
<!-- Generator: Adobe Illustrator 19.0.0, SVG Export Plug-In . SVG Version: 6.00 Build 0)  -->
<svg version="1.1" xmlns="http://www.w3.org/2000/svg" xmlns:xlink="http://www.w3.org/1999/xlink" x="0px" y="0px"
	 viewBox="0 0 1500 1500" style="enable-background:new 0 0 1500 1500;" xml:space="preserve">
<style type="text/css">
	.st0{enable-background:new    ;}
	.st1{fill-rule:evenodd;clip-rule:evenodd;}
</style>
<g id="Polygon_1_1_" class="st0">
	<g id="Polygon_1">
		<g>
			<path d="M900.3,311.2l350.4,452.7l-340,455.8l-561.4-171.1L343,487.6L900.3,311.2 M905.5,294.7L328.7,477.2l6.6,581.8
				l580.9,177.1l352.4-472.4L905.5,294.7L905.5,294.7z"/>
		</g>
	</g>
</g>
<g id="Polygon_1_Kopie_1_" class="st0">
	<g id="Polygon_1_Kopie">
		<g>
			<path d="M912.1,262.5l386.3,498.1l-375.5,502l-619.2-188L297,457L912.1,262.5 M917.3,246L282.7,446.7l6.8,638.5l638.7,193.9
				l388-518.6L917.3,246L917.3,246z"/>
		</g>
	</g>
</g>
<g id="Polygon_1_Kopie_2_1_" class="st0">
	<g id="Polygon_1_Kopie_2">
		<g>
			<path d="M929.8,204.8L1358.4,758l-416.3,557.3l-686.7-209l-7.5-685.8L929.8,204.8 M935,188.3L233.5,410.2l7.8,706.7l706.2,214.9
				l428.7-573.9L935,188.3L935,188.3z"/>
		</g>
	</g>
</g>
<g id="Polygon_1_Kopie_3_1_" class="st0">
	<g id="Polygon_1_Kopie_3">
		<g>
			<path d="M954.8,151.2l468,604.6l-454.2,608.8L219,1136.1l-8.4-749.4L954.8,151.2 M960,134.7L196.3,376.3l8.7,770.3L974,1381
				l466.6-625.4L960,134.7L960,134.7z"/>
		</g>
	</g>
</g>
<g id="Polygon_1_Kopie_4_1_" class="st0">
	<g id="Polygon_1_Kopie_4">
		<g>
			<path d="M958.3,102.5l503.9,650l-489.7,655L165,1162.2l-8.7-806L958.3,102.5 M963.4,86L142,345.8l8.9,826.9L977.8,1424
				L1480,752.4L963.4,86L963.4,86z"/>
		</g>
	</g>
</g>
<g id="Ellipse_1_1_" class="st0">
	<g id="Ellipse_1">
		<g>
			<path class="st1" d="M746,823.9c-17,0-30.9-13.9-30.9-30.9s13.9-30.9,30.9-30.9c17,0,30.9,13.9,30.9,30.9S763,823.9,746,823.9z"
				/>
		</g>
		<g>
			<path d="M746,769.2c13.1,0,23.8,10.7,23.8,23.8c0,13.1-10.7,23.8-23.8,23.8s-23.8-10.7-23.8-23.8
				C722.2,779.9,732.9,769.2,746,769.2 M746,755c-21,0-38,17-38,38c0,21,17,38,38,38s38-17,38-38C784,772,767,755,746,755L746,755z"
				/>
		</g>
	</g>
</g>
<g id="Form_1_1_" class="st0">
	<g id="Form_1">
		<g>
			<rect x="746.1" y="465.1" class="st1" width="0.8" height="270.8"/>
		</g>
		<g>
			<polygon points="754,458 739,458 739,743 754,743 754,458 			"/>
		</g>
	</g>
</g>
<g id="Form_1_Kopie_1_" class="st0">
	<g id="Form_1_Kopie">
		<g>
			<rect x="818.1" y="792.1" class="st1" width="270.8" height="0.8"/>
		</g>
		<g>
			<polygon points="1096,785 811,785 811,800 1096,800 1096,785 			"/>
		</g>
	</g>
</g>
</svg>
